# xmcd CD database file
#
# Track frame offsets:
#	187
#	29585
#	41602
#	51820
#	65162
#	75427
#	84770
#	94127
#	105392
#	114420
#	122800
#	133737
#	145535
#	157995
#	169097
#	179017
#
# Disc length: 2581 seconds
#
# Revision: 4
# Processed by: cddbd v1.5.2PL0 Copyright (c) Steve Scherf et al.
# Submitted via: CDex 1.51
#
DISCID=cf0a1310
DTITLE=Chet Atkins - The RCA Years, 1947-1981 [CD1]
DYEAR=1900
DGENRE=Country
TTITLE0=Avalon (with Les Paul)
TTITLE1=A Taste of Honey
TTITLE2=Snowbird
TTITLE3=El Condor Pasa
TTITLE4=Main Street Breakdown
TTITLE5=Yakety Axe
TTITLE6=Slinkey
TTITLE7=Windy and Warm
TTITLE8=Chinatown, My Chinatown
TTITLE9=Country Gentleman (with Arthur Fiedler and The Boston Pops Orchestra)
TTITLE10=Blue Angel
TTITLE11=Black Mountain Rag
TTITLE12=Good Stuff (with Jerry Reed)
TTITLE13=Cascade
TTITLE14=Jerry's Breakdown (with Jerry Reed)
TTITLE15=Vincent
EXTD=
EXTT0=
EXTT1=
EXTT2=
EXTT3=
EXTT4=
EXTT5=
EXTT6=
EXTT7=
EXTT8=
EXTT9=
EXTT10=
EXTT11=
EXTT12=
EXTT13=
EXTT14=
EXTT15=
PLAYORDER=
